<svg width="61" height="30" viewBox="0 0 61 30" fill="none" xmlns="http://www.w3.org/2000/svg">
    <path
        d="M19.7486 0C18.8573 5.06946 15.097 9.16402 10.2225 10.5846C10.0832 10.6124 9.97178 10.6681 9.83251 10.696C8.27268 11.1417 6.82426 11.8659 5.54297 12.8408C5.57082 12.2558 5.65439 11.6709 5.76581 11.1138C6.99139 4.76306 12.5344 0 19.2194 0C19.4143 0 19.5815 0 19.7486 0Z"
        fill="white" />
    <path
        d="M3.11967 15.2619C7.46492 14.7327 12.3115 17.7688 12.3115 22.5876C12.3115 27.1557 8.57908 29.9968 5.23658 29.9968C3.73245 29.9968 2.33975 29.4676 1.36485 29.4676V11.9194C1.36485 10.8053 0.919187 10.0253 0 10.0253V9.69109L3.14752 8.85547V15.2619H3.11967ZM10.1946 22.7547C10.1946 18.7158 7.07496 15.6519 3.11967 16.1533V27.0999C3.11967 28.5205 3.76032 28.994 4.79092 28.994C7.21423 28.994 10.1946 27.0164 10.1946 22.7547Z"
        fill="white" />
    <path
        d="M28.2442 27.4058C27.6315 28.1857 26.0995 29.857 23.1191 29.857C19.3309 29.857 15.8213 26.5145 15.8213 22.3642C15.8213 17.9354 19.1916 15.0664 22.2835 15.0664C25.7652 15.0664 28.3 17.7126 28.3 20.6372C28.3 21.7514 27.8264 22.3085 26.9073 22.3085L17.7432 22.3642C18.1889 26.9044 21.5871 28.6035 23.6205 28.6035C25.7931 28.6035 27.0187 27.8236 27.8821 27.0159L28.2442 27.4058ZM17.7154 21.5286L26.5173 21.4172C26.5173 18.2975 24.5675 15.9856 22.2835 15.9856C19.3588 15.9856 17.604 19.3002 17.7154 21.5286Z"
        fill="white" />
    <path
        d="M31.1133 15.985V15.6508L33.7037 15.2329V24.5919C33.7037 28.1573 35.5421 28.7701 36.8234 28.7701C38.3554 28.7701 40.3052 27.1824 41.0015 26.1796V18.0184C41.0015 16.7928 41.0851 15.9571 40.1659 15.9571V15.6229L42.7563 15.2051V27.0153C42.7563 28.1016 43.202 29.3271 44.1212 29.3271V29.6614H42.4499C41.7257 29.6614 41.0015 28.9093 41.0015 28.0737V27.6559C40.333 28.2687 38.2997 29.8007 36.3499 29.8007C33.6759 29.8007 31.9489 28.408 31.9489 24.5641V17.9905C31.9489 16.7371 32.0046 15.985 31.1133 15.985Z"
        fill="white" />
    <path
        d="M59.2453 26.8771C59.2453 28.1305 59.7188 29.384 60.6102 29.384V29.7182H56.0978V29.384C57.017 29.384 57.4626 28.047 57.4626 26.8771V20.1642C57.4626 17.3788 56.2092 16.4596 54.538 16.4596C52.3375 16.4596 50.3877 18.298 49.8585 19.0222V26.8492C49.8585 27.852 50.3041 29.3561 51.2233 29.3561V29.6903H46.7109V29.3561C47.6301 29.3561 48.0758 27.9355 48.0758 26.8492V17.8245C48.0758 16.9053 47.7415 15.9025 46.8224 15.9025V15.5961L49.5521 15.234L49.8306 17.8802C50.7219 16.6825 52.8667 15.0391 54.7886 15.0391C57.6298 15.0391 59.1896 16.5989 59.1896 20.1364V26.8771H59.2453Z"
        fill="white" />
</svg>